# xmcd
#
# Track frame offsets:
#	150
#	10752
#	23417
#	33282
#	51295
#	65747
#	76325
#	87845
#	99572
#	114172
#	129835
#	143657
#	153750
#	165502
#	176197
#	188467
#	201085
#	214227
#	228340
#	242300
#	254917
#	269575
#	280267
#	292242
#	302192
#	313042
#
# Disc length: 4391 seconds
#
# Revision: 1
# Processed by: cddbd v1.5.2PL0 Copyright (c) Steve Scherf et al.
# Submitted via: audiograbber 1.83.01
#
DISCID=6511251a
DTITLE=Various Artist - Country Evergreens  CD 3 of 4
DYEAR=1900
DGENRE=Country
TTITLE0=Jerry Reed - Blue Moon of Kentucky  1969
TTITLE1=Hank Snow - I'm movin' on  1950
TTITLE2=Don Reno and Bobby Thompson - Cripple Creek  1982
TTITLE3=Dave Dudley - Rooster Hill  1978
TTITLE4=Glenn Martin - Mule skinner blues  1963
TTITLE5=The Cattlemen - Jesse James  1966
TTITLE6=Dolly Parton - 9 to 5  1980
TTITLE7=Frankie Laine - Mule Train  1958
TTITLE8=Ronnie Milsap - There's no gettin' over me  1981
TTITLE9=Willie Nelson - Mammas don't let your babies grow up to be cowboys  198
TTITLE9=1
TTITLE10=Anne Murray - Danny's song  1972
TTITLE11=Jerry Reed - Red hot picker  1961
TTITLE12=Tennesee Ernie Ford - Sixteen tons  
TTITLE13=Connie Smith - Lousiana Man  1970
TTITLE14=Billie Jo Spears - What I've got in mind  1991
TTITLE15=The Cattlemen - Tumbling Tumbleweeds  1963
TTITLE16=Waylon Jennings - Are you sure hank done it this way  1975
TTITLE17=Bobby Bare - A million miles to the city  1971
TTITLE18=Jimmy Dean and Dottie West - Jackson  1970
TTITLE19=Red Foley - Chatanoogie shoe shine boy  1949
TTITLE20=Jerry Reed and Weldon Myrick - If I had a hammer  1967
TTITLE21=Don Gibson - Lonesome number one  1961
TTITLE22=Kenny Rogers - Reuben James  1977
TTITLE23=The Cattlemen - The streets of Laredo  1963
TTITLE24=Eddy Arnold - The cattle call  1955
TTITLE25=Bobby Bare and The Family - Singing in the kitchen  1974
EXTD=
EXTT0=
EXTT1=
EXTT2=
EXTT3=
EXTT4=
EXTT5=
EXTT6=
EXTT7=
EXTT8=
EXTT9=
EXTT10=
EXTT11=
EXTT12=
EXTT13=
EXTT14=
EXTT15=
EXTT16=
EXTT17=
EXTT18=
EXTT19=
EXTT20=
EXTT21=
EXTT22=
EXTT23=
EXTT24=
EXTT25=
PLAYORDER=
